<?xml version="1.0" standalone="no"?>
<!DOCTYPE svg PUBLIC "-//W3C//DTD SVG 20010904//EN"
 "http://www.w3.org/TR/2001/REC-SVG-20010904/DTD/svg10.dtd">
<svg version="1.0" xmlns="http://www.w3.org/2000/svg"
 width="112.000000pt" height="98.000000pt" viewBox="0 0 112.000000 98.000000"
 preserveAspectRatio="xMidYMid meet">

<g transform="translate(0.000000,98.000000) scale(0.100000,-0.100000)"
fill="#fff" stroke="none">
<path d="M120 958 c0 -7 32 -56 70 -108 39 -52 70 -97 70 -100 0 -3 -21 -17
-48 -32 -126 -71 -192 -170 -192 -288 0 -88 32 -152 111 -223 l59 -54 -35 -46
c-19 -25 -35 -48 -35 -51 0 -3 22 -6 49 -6 44 0 51 3 71 33 l22 33 72 -26 c65
-23 85 -25 248 -26 98 0 181 -3 184 -7 10 -10 244 -9 244 1 -1 4 -14 23 -30
42 -17 19 -30 39 -30 45 0 5 25 31 54 57 179 157 134 397 -97 519 -34 17 -64
33 -66 35 -2 2 29 45 69 96 40 51 77 99 83 106 7 9 -3 12 -45 12 l-55 0 -72
-94 -71 -94 -38 9 c-20 5 -81 9 -134 9 l-97 0 -59 83 -58 82 -122 3 c-94 2
-122 0 -122 -10z m587 -221 c2 -3 -17 -33 -43 -66 -26 -34 -50 -58 -54 -54 -4
5 -23 32 -44 62 -30 42 -35 56 -24 63 13 9 155 4 165 -5z m154 -48 c55 -28
126 -95 150 -140 44 -87 33 -169 -34 -251 -79 -96 -69 -99 -189 69 -57 81
-108 154 -112 161 -9 16 115 182 136 182 5 0 27 -9 49 -21z m-514 -56 c16 -21
46 -61 66 -89 l37 -51 -85 -111 c-47 -61 -91 -114 -97 -118 -7 -5 -27 9 -48
34 -89 100 -75 233 35 330 26 23 51 42 56 42 4 0 20 -17 36 -37z m255 -347
c88 -123 94 -135 75 -140 -64 -17 -225 4 -306 41 l-40 18 82 107 c45 60 84
108 87 108 3 -1 48 -61 102 -134z"/>
</g>
</svg>
